<svg xmlns="http://www.w3.org/2000/svg" viewBox="0 0 114 114"><svg x="7" y="0" width="100" height="114" viewBox="0 0 100 114"><defs><linearGradient id="sv-base" gradientUnits="userSpaceOnUse" x1="59.7" y1="-1.2" x2="40.3" y2="115.2"><stop offset="0" stop-color="#1F3BE8"></stop><stop offset="0.517" stop-color="#1F3BE8"></stop><stop offset="0.603" stop-color="#1A3BD9"></stop><stop offset="0.841" stop-color="#6E6BFF"></stop><stop offset="1" stop-color="#6E6BFF"></stop></linearGradient><linearGradient id="sv-top" gradientUnits="userSpaceOnUse" x1="22.55" y1="23.24" x2="103.95" y2="9.68"><stop offset="0" stop-color="#29C5FF" stop-opacity="0"></stop><stop offset="0.4" stop-color="#29C5FF" stop-opacity="0.2"></stop><stop offset="1" stop-color="#29C5FF" stop-opacity="1"></stop></linearGradient><linearGradient id="sv-mid" gradientUnits="userSpaceOnUse" x1="22.55" y1="52.42" x2="77.45" y2="61.57"><stop offset="0" stop-color="#4FA8FF" stop-opacity="0.95"></stop><stop offset="0.3" stop-color="#4FA8FF" stop-opacity="0.72"></stop><stop offset="0.8" stop-color="#4FA8FF" stop-opacity="0"></stop></linearGradient><linearGradient id="sv-bottom" gradientUnits="userSpaceOnUse" x1="77.45" y1="90.76" x2="-3.95" y2="104.32"><stop offset="0" stop-color="#9B6BFF" stop-opacity="0"></stop><stop offset="0.45" stop-color="#9B6BFF" stop-opacity="0.3"></stop><stop offset="1" stop-color="#9B6BFF" stop-opacity="1"></stop></linearGradient><linearGradient id="sv-mask" gradientUnits="userSpaceOnUse" x1="59.7" y1="-1.2" x2="40.3" y2="115.2"><stop offset="0.261" stop-color="#FFFFFF" stop-opacity="0"></stop><stop offset="0.422" stop-color="#FFFFFF" stop-opacity="1"></stop><stop offset="0.603" stop-color="#FFFFFF" stop-opacity="1"></stop><stop offset="0.654" stop-color="#FFFFFF" stop-opacity="0"></stop></linearGradient><mask id="sv-fade" maskUnits="userSpaceOnUse" x="0" y="0" width="100" height="114"><rect width="100" height="114" fill="url(#sv-mask)"></rect></mask></defs><path d="M100 0L20.88 13.19A24.99 24.99 0 0 0 20.88 62.48L75.77 71.63A4.6 4.6 0 0 1 75.77 80.7L0 93.33L0 114L79.12 100.81A24.99 24.99 0 0 0 79.12 51.52L24.23 42.37A4.6 4.6 0 0 1 24.23 33.3L100 20.67Z" fill="url(#sv-base)"></path><path d="M100 0L20.88 13.19A24.99 24.99 0 0 0 20.88 62.48L75.77 71.63A4.6 4.6 0 0 1 75.77 80.7L0 93.33L0 114L79.12 100.81A24.99 24.99 0 0 0 79.12 51.52L24.23 42.37A4.6 4.6 0 0 1 24.23 33.3L100 20.67Z" fill="url(#sv-mid)" mask="url(#sv-fade)"></path><path d="M20.88 13.19L100 0L100 20.67L24.23 33.3Z" fill="url(#sv-top)"></path><path d="M79.12 100.81L75.77 80.7L0 93.33L0 114Z" fill="url(#sv-bottom)"></path></svg><circle cx="98" cy="98" r="15" fill="#E59A0B" stroke="#FFFFFF" stroke-width="5"/></svg>
